<?xml version="1.0" encoding="utf-8"?>
<!-- Generator: Adobe Illustrator 19.1.0, SVG Export Plug-In . SVG Version: 6.00 Build 0)  -->
<svg version="1.1" id="Layer_1" xmlns="http://www.w3.org/2000/svg" xmlns:xlink="http://www.w3.org/1999/xlink" x="0px" y="0px"
	 viewBox="0 0 10 10" style="enable-background:new 0 0 10 10;" xml:space="preserve">
<style type="text/css">
	.st0{fill:#C32232;}
</style>
<polygon id="_x31_23" class="st0" points="4,25.2 8.7,25.2 11.1,21 11.9,21.5 9.9,25.2 14,25.2 14,26.2 4,26.2 "/>
<polygon id="abcde" class="st0" points="-14,25.2 -9.3,25.2 -7,21 -6.1,21.5 -8.2,25.2 -4,25.2 -4,26.2 -14,26.2 "/>
<polygon class="st0" points="6.2,23 1.5,23 -0.8,27 -1.7,26.5 0.4,23 -3.7,23 -3.7,22 6.2,22 "/>
<polygon class="st0" points="-4,-25.1 -8.7,-25.1 -11.1,-21 -11.9,-21.5 -9.9,-25.1 -14,-25.1 -14,-26.1 -4,-26.1 "/>
<polygon class="st0" points="14,-25.1 9.3,-25.1 6.9,-21 6.1,-21.5 8.1,-25.1 4,-25.1 4,-26.1 14,-26.1 "/>
<polygon class="st0" points="-6.3,-22.9 -1.6,-22.9 0.8,-27 1.7,-26.5 -0.4,-22.9 3.7,-22.9 3.7,-21.9 -6.3,-21.9 "/>
<polygon class="st0" points="23.8,9 26.1,5 23.8,1 24.6,0.5 26.7,4.1 28.8,0.5 29.6,1 24.6,9.5 "/>
<polygon class="st0" points="14.8,24.7 17.1,20.7 14.8,16.5 15.6,16 17.7,19.7 19.7,16 20.6,16.5 15.6,25.2 "/>
<polygon class="st0" points="23,6 20.7,10.2 23,14.2 22.2,14.8 20.1,11.2 18,14.8 17.2,14.2 22.2,5.5 "/>
<polygon class="st0" points="-23.8,-9 -26.1,-4.9 -23.8,-0.9 -24.7,-0.4 -26.7,-3.9 -28.8,-0.4 -29.6,-0.9 -24.7,-9.5 "/>
<polygon class="st0" points="-14.8,-24.6 -17.1,-20.6 -14.8,-16.5 -15.6,-16 -17.7,-19.6 -19.8,-16 -20.6,-16.5 -15.6,-25.1 "/>
<polygon class="st0" points="-23.1,-6 -20.7,-10.1 -23,-14.2 -22.2,-14.7 -20.1,-11.1 -18.1,-14.7 -17.2,-14.2 -22.2,-5.5 "/>
<polygon class="st0" points="19.7,-16 17.4,-20.1 12.7,-20.1 12.7,-21.1 16.8,-21.1 14.8,-24.6 15.6,-25.1 20.6,-16.5 "/>
<polygon class="st0" points="28.8,-0.4 26.4,-4.5 21.7,-4.5 21.7,-5.4 25.8,-5.4 23.8,-9 24.6,-9.5 29.6,-0.9 "/>
<polygon class="st0" points="16.8,-16.9 19.1,-12.8 23.8,-12.8 23.8,-11.8 19.7,-11.8 21.8,-8.2 20.9,-7.8 15.9,-16.4 "/>
<polygon class="st0" points="-19.8,16 -17.4,20.2 -12.7,20.2 -12.7,21.2 -16.8,21.2 -14.8,24.7 -15.6,25.2 -20.6,16.5 "/>
<polygon class="st0" points="-28.8,0.5 -26.4,4.6 -21.7,4.6 -21.7,5.5 -25.8,5.5 -23.8,9 -24.7,9.5 -29.6,1 "/>
<polygon class="st0" points="-16.8,17 -19.1,12.9 -23.8,12.9 -23.8,11.9 -19.7,11.9 -21.8,8.2 -20.9,7.8 -15.9,16.5 "/>
<polygon class="st0" points="13.7,-1.6 16.1,2.5 20.8,2.5 20.8,3.5 16.7,3.5 18.7,7 17.9,7.5 12.9,-1.1 "/>
<polygon class="st0" points="9.6,0.8 11.9,4.9 9.6,9 10.4,9.5 12.5,5.9 14.6,9.5 15.4,9 10.4,0.2 "/>
<polygon class="st0" points="15.8,9.8 13.4,13.8 8.7,13.8 8.7,14.8 12.9,14.8 10.8,18.4 11.7,18.9 16.7,10.2 "/>
<polygon class="st0" points="-13.7,1.7 -16.1,-2.3 -20.8,-2.3 -20.8,-3.3 -16.7,-3.3 -18.7,-6.9 -17.9,-7.4 -12.9,1.2 "/>
<polygon class="st0" points="-9.6,-0.8 -11.9,-4.8 -9.6,-8.9 -10.5,-9.4 -12.5,-5.8 -14.6,-9.4 -15.4,-8.9 -10.5,-0.2 "/>
<polygon class="st0" points="-15.8,-9.8 -13.5,-13.7 -8.8,-13.7 -8.8,-14.7 -12.9,-14.7 -10.8,-18.3 -11.7,-18.8 -16.7,-10.2 "/>
<polygon class="st0" points="5.4,-12.7 10.1,-12.7 12.5,-16.8 13.3,-16.2 11.3,-12.7 15.4,-12.7 15.4,-11.7 5.4,-11.7 "/>
<polygon class="st0" points="5.5,-7.8 10.2,-7.8 12.5,-3.8 13.4,-4.3 11.3,-7.8 15.4,-7.8 15.4,-8.8 5.5,-8.8 "/>
<polygon class="st0" points="16.3,-8.8 18.7,-4.8 16.3,-0.6 17.2,-0.1 19.2,-3.8 21.3,-0.1 22.2,-0.6 17.2,-9.3 "/>
<polygon class="st0" points="-5.4,12.8 -10.1,12.8 -12.5,16.9 -13.3,16.4 -11.3,12.8 -15.4,12.8 -15.4,11.8 -5.4,11.8 "/>
<polygon class="st0" points="-5.5,8 -10.2,8 -12.5,3.9 -13.4,4.4 -11.3,8 -15.4,8 -15.4,9 -5.5,9 "/>
<polygon class="st0" points="-16.3,8.9 -18.7,4.8 -16.3,0.7 -17.2,0.2 -19.2,3.8 -21.3,0.2 -22.2,0.7 -17.2,9.4 "/>
<polygon class="st0" points="-8.3,-11 -6,-15.1 -8.3,-19.1 -7.5,-19.6 -5.4,-16.1 -3.3,-19.6 -2.5,-19.1 -7.5,-10.5 "/>
<polygon class="st0" points="-4.1,-8.6 -1.8,-12.7 2.9,-12.7 2.9,-13.7 -1.2,-13.7 0.9,-17.3 0,-17.8 -5,-9.1 "/>
<polygon class="st0" points="0.5,-18.5 5.2,-18.5 7.6,-14.4 8.4,-14.9 6.4,-18.5 10.5,-18.5 10.5,-19.5 0.5,-19.5 "/>
<polygon class="st0" points="8.3,11 6,15.2 8.3,19.2 7.4,19.8 5.4,16.2 3.3,19.8 2.5,19.2 7.4,10.5 "/>
<polygon class="st0" points="4.1,8.8 1.8,12.8 -2.9,12.8 -2.9,13.8 1.2,13.8 -0.9,17.4 0,17.9 5,9.2 "/>
<polygon class="st0" points="-0.5,18.5 -5.2,18.5 -7.6,14.5 -8.4,15 -6.4,18.5 -10.5,18.5 -10.5,19.5 -0.5,19.5 "/>
<polygon class="st0" points="1.3,2.1 -1.1,6.2 1.3,10.2 0.4,10.7 -1.7,7.2 -3.7,10.7 -4.6,10.2 0.4,1.6 "/>
<polygon class="st0" points="2.4,0 4.8,4.1 9.5,4.1 9.5,5 5.3,5 7.4,8.5 6.5,9 1.5,0.5 "/>
<polygon class="st0" points="1.1,-2.1 5.8,-2.1 8.2,-6.1 9.1,-5.6 7,-2.1 11.1,-2.1 11.1,-1.1 1.1,-1.1 "/>
<polygon class="st0" points="-1.3,-2 1.1,-6.1 -1.3,-10.1 -0.4,-10.6 1.7,-7.1 3.7,-10.6 4.6,-10.1 -0.4,-1.5 "/>
<polygon class="st0" points="-2.4,0.1 -4.8,-3.9 -9.5,-3.9 -9.5,-4.9 -5.3,-4.9 -7.4,-8.5 -6.5,-9 -1.6,-0.4 "/>
<polygon class="st0" points="-1.2,2.2 -5.9,2.2 -8.2,6.2 -9.1,5.8 -7,2.2 -11.1,2.2 -11.1,1.2 -1.2,1.2 "/>
</svg>
